<svg id="Layer_2" data-name="Layer 2" xmlns="http://www.w3.org/2000/svg" viewBox="0 0 2185.73 1742.07"><defs><style>.cls-1{fill:#010101;}.cls-2{fill:#fff;}.cls-3{fill:#020202;}.cls-4{fill:#e0ad26;}.cls-5{fill:#050505;}.cls-6{fill:#040404;}.cls-7{fill:#040505;}.cls-8{fill:#0d0e0e;}.cls-9{fill:#101111;}.cls-10{fill:#101010;}.cls-11{fill:#020302;}.cls-12{fill:#030404;}</style></defs><path class="cls-1" d="M660.09,1379.38c-22.6-3.36-43.61-7.05-64.4-11.82-255.2-58.47-459.87-242-530.19-506.82A729.29,729.29,0,0,1,41.67,641.17Q49.4,460.65,136.39,302c.8-1.47,1.79-2.83,3.35-5.27Q479.4,636.37,819.42,976.4c0-9.32-.14-17.18.07-25,.09-3.3-1.6-5.27-3.75-7.23-65.53-59.82-102.88-134.81-117.65-221.43-17.4-102.13-6.55-201.47,35.29-296.33,49.5-112.24,135.73-181.22,254.76-209.67,37.06-8.86,74.73-12.18,112.73-14.11,32.66-1.65,65.14-1.3,97.57,2.15,67.9,7.22,133.74,22.66,193.93,55.91,66.06,36.5,111.45,92.4,143,160.07,24.82,53.2,38.21,109.43,43.17,167.81,6.53,77-1.45,152-31.12,224-20.51,49.77-50,93.39-90,129.6-5.14,4.65-5.08,9.64-5,15.3,0,4.47,0,8.94,0,13.42l675.22-675.23c10.82,18.34,19.23,35.62,27.36,53.05a761.67,761.67,0,0,1,64.47,217.66,747.11,747.11,0,0,1,4,173.52c-10.85,116-46,223.92-109.33,321.84-96.41,149.13-232.27,245.34-401.73,295.47-16.37,4.84-33,8.87-49.67,12.35-16.47,3.43-33,6.59-49.73,9-1,3.65,2.39,4.84,4.07,6.74,34.64,39.06,60.12,82.92,70.87,134.54,12.07,57.92,2,112.81-23.66,165.23-32.43,66.21-82.68,116.35-143.55,156.53-67.22,44.39-141.39,71.49-220,86.93a830.59,830.59,0,0,1-208,13.84c-117.52-6.68-228.89-34.47-329.64-97.53-63.51-39.74-116.24-90.22-151.19-157.5-24.1-46.39-35.45-95.63-29.59-147.86,5.91-52.68,27.89-98.8,60.91-139.88C648.33,1393.11,653.76,1386.91,660.09,1379.38Z" transform="translate(-40.98 -201.65)"/><path class="cls-2" d="M1452.47,1324.69c56.78,30.94,108,67.19,145.69,119.54,56.56,78.52,57.31,165.58,3,247.78a351.4,351.4,0,0,1-49.81,59.74c-2,1.88-3.46,4.58-7,4.92.71-8.33,1.63-16.47,2-24.63,3.72-73.51-16.3-139.28-64.41-195.7-12.47-14.63-27-27-42.64-38.26-5.19-3.73-7.41-2.68-10.29,2.32-4.71,8.14-14.1,16-14,23.84.13,8,12.93,11.72,19.72,17.91,51.5,47,74.17,106.16,74.69,174.8.19,25-4,49.42-11.6,73.27-1.08,3.41-2.32,6.26-5.42,8.29-42.34,27.7-88,48-137.67,63.18,7.85-17.09,14.62-33.25,18.33-50.45,14.44-66.92,3.36-128.08-41.11-181.65-6.82-8.21-7-8.1-14.54-.58-6.08,6-15.46,11.3-17.23,18.43-1.7,6.83,8.94,12.37,13.29,19.19,34.88,54.61,36,111.41,11.28,169.88-5.13,12.12-12.18,23.21-19.93,33.88-2.93,4-6.4,5.87-11.15,6.8a819,819,0,0,1-131.68,14.53c-6.83.21-7.91-1.64-7.88-7.85.23-56.6-.13-113.21.4-169.8.08-9.11-2.64-11.12-10.86-10.32s-19.33-2.68-24,1.51c-5.28,4.78-1.58,16.07-1.6,24.51q-.23,76.76.06,153.51c0,6.18-1.09,8.24-7.89,8.06-42.61-1.13-84.69-6.55-126.49-14.52a18.59,18.59,0,0,1-12.32-8c-43.65-60.25-48.13-140.9-10.84-200.21,4.57-7.26,9.38-14.4,15.61-20.3,3.46-3.29,2.75-5.11-.3-7.92a203.66,203.66,0,0,1-15.79-15.72c-3.63-4.15-5.75-3.68-9.29.21-25.45,28-40.52,60.92-46.76,98-8,47.34-.31,92.39,20.72,135.34.45.91.86,1.83,1.83,3.89a572.32,572.32,0,0,1-94.94-37.66q-23.24-11.78-45.21-25.77c-3.61-2.29-6.15-4.92-7.27-8.92C753.68,1697.64,769,1615,836.36,1544.6a141.39,141.39,0,0,1,24.55-19.93c3.47-2.3,4.63-4.15,1.82-8a193.19,193.19,0,0,1-12.46-19.4c-2.53-4.55-4.52-4.09-8.34-1.43-49,34.15-80.31,80.8-97.28,137.5-12.22,40.82-14.34,82.41-8.11,124.49a29.92,29.92,0,0,1,0,3.35c-23.75-20.44-44-42.63-61.11-67.73-22.76-33.46-38.43-69.82-42.12-110.38-4.12-45.26,7.7-86.9,31.72-125.22,30-47.81,72.16-82.66,119.34-112.14,11-6.89,22.48-13.1,33.49-19.48,1,1,1.73,1.39,1.68,1.67-1.75,9.74,2.76,11.2,11.69,11,41.77-.85,83.07-6,124.38-11.59,65.59-8.82,131-19.7,197.56-18,39.45,1,78.5,5.94,117.54,11.25,55.65,7.57,111.09,17.22,167.47,18.11C1451.42,1338.87,1451.42,1338.9,1452.47,1324.69Z" transform="translate(-40.98 -201.65)"/><path class="cls-2" d="M327,1180.44c-23-18.2-43.65-38.57-63.31-59.94-25.92-28.2-50.33-57.8-69.09-91.24-43.42-77.39-48.26-155.81.23-232.84,27.71-44,69.49-70.68,119-85.1,6.35-1.84,6.49-4.36,5.14-9.26-1.89-6.85-3.55-13.75-5.36-20.62-.94-3.56-1.85-5.37-6.86-4.08C213.29,701.4,143,779,129,874.16c-.48,3.22-.72,6.47-2.16,9.59C73.46,714.24,83.6,548.11,154,382.11c3.18,4.31,5,7.63,7.61,10.21q324.93,325.09,650.1,650c5.92,5.9,8.27,11.75,8.23,20.09q-.49,99,0,198.09c0,5.78-1.81,8.54-6.84,10.93A554.19,554.19,0,0,0,717.43,1329c-3.67,2.77-7.16,3.58-11.81,3.19-23-1.92-45.89-5-68.65-9.07-4.36-.77-8.07-2.09-11.44-5.05-43.06-37.75-66.27-84.51-62.54-142.44,2.59-40.2,20.16-74.34,47.78-103.26,4.41-4.62,4.93-7.11-.07-11-3.35-2.63-6.06-6.06-9.05-9.13-10-10.21-10.11-10.34-19.84.64-37.8,42.68-57.12,92.16-53.19,149.54,2.31,33.82,13.51,65,32,93.41q2.79,4.29,5.52,8.59c.14.22.07.56.19,1.67-14.28-3.21-27.75-8.16-41.2-13a699.4,699.4,0,0,1-116.27-54.64,62.61,62.61,0,0,1-19.48-17.53c-27.27-37.37-43.18-78.94-44-125.26-1.06-59.28,21.51-109.25,63.58-150.62a186.24,186.24,0,0,1,26.26-21.87c3.32-2.24,3.8-3.94,1.2-7.32a219.32,219.32,0,0,1-13.54-19.73c-2.62-4.29-4.72-3.28-7.94-.91-56.7,41.94-92.5,96.78-102.24,167.25-5.21,37.66,0,74.45,12.51,110.25.75,2.14,1.49,4.27,2.19,6.42C327.49,1179.35,327.25,1179.67,327,1180.44Z" transform="translate(-40.98 -201.65)"/><path class="cls-2" d="M1946.43,1174.83c7.7-22.94,13-45,14.72-67.89,4-55.14-10.44-105.06-41.38-150.46-16.57-24.32-37.21-44.71-60.84-62.24-5-3.73-7.23-3.14-10.25,2a171.07,171.07,0,0,1-13.13,19c-3.41,4.34-3.11,6.58,1.59,10,32.9,23.78,58.14,53.94,72.9,92,27.55,71,14.44,136.49-27.58,197.93a87.21,87.21,0,0,1-30,27.2c-44.69,25.23-91.28,45.9-140.34,61-1.86.57-3.8.93-7.24,1.75,13-18.34,23.15-36.7,29.48-56.81,24.46-77.73,5-144.89-49.4-203.59-3.6-3.89-5.61-2.92-8.62.42-5.55,6.15-11.23,12.23-17.34,17.81-4,3.61-3.64,5.64,0,9.4,22.26,22.68,38,49.29,44.36,80.57,12.43,61.29-7.77,111.87-51,155.43-14,14.13-30.81,17.13-48.62,19.41-12.73,1.62-25.53,2.63-38.28,4.16a14.28,14.28,0,0,1-11.09-3,568.71,568.71,0,0,0-96.84-59c-4-2-5.77-4.31-5.75-9.1q.26-104.19,0-208.4c0-5.37,2.8-8.3,6-11.54q77.64-77.61,155.25-155.24,246.81-246.82,493.59-493.69c2.39-2.39,4.08-5.5,7.13-9.68,68.78,161.67,80,324,31.64,491.09-3.7-4.82-3-9.86-4-14.33-20.41-90.19-76.23-148.31-162.15-179.08-18.16-6.51-18.28-6.17-23.21,12.45-4.65,17.6-4.56,17.34,12.73,23.59,70.49,25.53,117.84,72.91,134.77,147,12.31,53.89,3.73,105.79-23,153.89-33.69,60.49-79.22,111.45-131.2,156.83A15.1,15.1,0,0,1,1946.43,1174.83Z" transform="translate(-40.98 -201.65)"/><path class="cls-2" d="M1112.61,555.47q0,142.8.11,285.61c0,6.14-.88,8.63-8,9-43.06,2.23-85.71,8.29-128.37,14.36-43.5,6.18-87,12.16-131,14.38-5.62.28-9.44-1.33-13.11-5.77-36-43.51-58.46-93.33-68.93-148.51-18.36-96.76-9.52-191,31.56-280.76,42.67-93.28,116.22-150.06,215.55-173.19,31.43-7.32,63.81-8.95,96.14-9.62,7.2-.15,6.09,3.79,6.09,8Q1112.61,412.24,1112.61,555.47Z" transform="translate(-40.98 -201.65)"/><path class="cls-2" d="M1161.08,554.91c0-94.87.11-189.75-.21-284.62,0-7.78,2.13-9.38,9.42-9.2,72.14,1.74,140.93,15.81,201.56,57.22,61.71,42.15,101.07,101.25,122.83,171.85,29.74,96.54,31.53,193.4-2.22,289.6-12,34.11-30.12,64.91-53.08,92.89-3.77,4.59-7.69,6.54-13.77,6.19-35.35-2-70.5-6-105.53-10.88-50.54-7.1-101-14.93-152-17.84-6.2-.35-7.14-2.41-7.13-8Q1161.22,698.52,1161.08,554.91Z" transform="translate(-40.98 -201.65)"/><path class="cls-2" d="M871.28,1106.69c0-56.88.1-113.76-.15-170.64,0-5.79,1.26-7.38,7.21-7.9,43.18-3.78,86.07-10,129-16.18,32.75-4.73,65.64-8.38,98.66-10.71,5.37-.38,6.88,1.13,6.76,6.46-.35,14.28.06,28.58-.22,42.87-.1,5.08,1.2,7.08,6.66,6.89,11.71-.4,23.44-.34,35.15,0,5.15.14,7-1.29,6.88-6.7-.36-14,.15-28-.25-42-.17-5.87,1.08-7.8,7.45-7.33,49.25,3.62,98,11.16,146.87,17.86,26.28,3.6,52.68,6.29,79.06,9,4.63.48,6.15,1.45,6.14,6.31q-.21,172.37,0,344.72c0,5-1.3,6-6.33,5.52-54.17-5.69-107.87-14.93-161.93-21.33-53.18-6.3-106.45-7.72-159.9-2.66-49.71,4.71-99,12.45-148.45,18.94-15.55,2-31.22,3.23-46.77,5.28-5.52.73-5.9-1.57-5.88-6,.14-30,.08-60,.08-90Z" transform="translate(-40.98 -201.65)"/><path class="cls-3" d="M947.7,591.16c-17.94-2.42-35.5-4.31-53.18-2.5-7.21.74-10.16-1.36-10.41-9-.56-17.38-2.25-14.35,13.13-14.37,61.2-.09,118.85,14.2,172.71,43.58,5.28,2.88,6,4.72,2.82,9.92-7.93,12.85-7.75,13.27-21.27,6a314.11,314.11,0,0,0-40.44-17.91c-3.65-1.35-5.92-2.15-7.24,3.08-4.78,19-19.53,28.19-36.75,23.54-17-4.58-25.15-20.58-20-39.08C947.29,593.61,947.39,592.75,947.7,591.16Z" transform="translate(-40.98 -201.65)"/><path class="cls-4" d="M987.39,676.72c-51.72-.22-89.36-30.77-98.17-73-.58-2.74-4-8.38,2.62-8.44,4.89,0,11.73-5,14.38,4.93,8,30.23,26.57,51,57.79,57.59,30,6.28,55-3.85,74.71-27.1,6.54-7.73,10.69.19,15.08,2.23,6.33,2.95.17,6.28-1.53,8.35C1033.28,664.5,1008.73,676.4,987.39,676.72Z" transform="translate(-40.98 -201.65)"/><path class="cls-3" d="M1357.43,589.74c-8.47.78-18.42,1.72-28.38,2.6-3.9.34-6.42,0-5.12,6.24,3.71,17.66-6.12,32.06-23.11,36-15,3.49-30.22-6.25-34.52-23.11-1.34-5.25-3.5-4-6.48-2.9-16.3,6.07-32.42,12.6-47.35,21.56-5.58,3.34-7.93,2.27-10.92-3.23-8.18-15-8.39-14.76,7.25-22.72,53.15-27.05,109.56-39.79,169.13-39.26,6,.05,8.58,1,8.19,7.93-1,17.1-.61,17.11-17.77,16.89C1365.21,589.71,1362.07,589.74,1357.43,589.74Z" transform="translate(-40.98 -201.65)"/><path class="cls-4" d="M1292.26,677.46c-31.38-1-56-12.73-74.84-36.11-1.47-1.82-7.37-4.9-1.83-7.64,4.55-2.26,9-10.55,15.66-2.53,13.28,16,30,26,50.93,28.2,38.1,4,72.54-20.48,81.54-57.85,1.53-6.34,11.12-10.33,17-7.14,2.1,1.13,1.33,2.71,1.16,4.36-3.7,37-40.55,73.59-78.29,77.59C1299.33,676.79,1295.07,677.19,1292.26,677.46Z" transform="translate(-40.98 -201.65)"/><path class="cls-5" d="M975.2,1160.38c.35-10.53,1.14-19.89,6.23-28.23,4.8-7.86,13.94-12.65,21.53-11.2,9,1.73,13.41,8.27,15.52,16.37a61.52,61.52,0,0,1-1,35.42,28.73,28.73,0,0,1-5.2,9.71c-5.34,6.35-12.33,9.44-20.5,8-7.77-1.34-11.84-6.9-14.26-14.27C975.69,1170.62,976.13,1164.91,975.2,1160.38Z" transform="translate(-40.98 -201.65)"/><path class="cls-6" d="M1185.7,1149.8a44.76,44.76,0,0,1-3.63,19.91c-3.57,7.73-9.52,12.25-18,12.32-8.24.07-15.12-3.46-18.62-11.3-7-15.62-7.36-31.66,0-47.06,7.12-14.85,25.74-15.15,34.48-1.16C1184,1128.91,1185.68,1136.37,1185.7,1149.8Z" transform="translate(-40.98 -201.65)"/><path class="cls-6" d="M1029.93,1150.46c.7-8.62,1.64-17.07,6.36-24.6s11.26-11.12,20.08-10.35c8.44.75,13.24,6.19,15.9,13.54a57.77,57.77,0,0,1-.11,40.19c-3.94,11-12.28,16.26-22.91,15.41-9.29-.75-15.71-7.28-17.88-18.87C1030.43,1160.76,1030.38,1155.57,1029.93,1150.46Z" transform="translate(-40.98 -201.65)"/><path class="cls-6" d="M1085.56,1016.61c-.11-7.47.52-14.83,3.79-21.68,4-8.31,9.92-13.69,19.87-13.35,9.64.33,15.09,6,18.1,14.29a57.44,57.44,0,0,1,0,40.11c-3.72,10.25-10.49,14.78-20.56,14.6-9.36-.17-15.63-5.26-19.07-15.39C1085.69,1029.14,1085.61,1022.87,1085.56,1016.61Z" transform="translate(-40.98 -201.65)"/><path class="cls-7" d="M1020.76,1020.84c-.6,9.84-1.37,18.64-5.8,26.58-4.92,8.81-13,12.83-22.79,11.72S978.66,1050.91,977,1043c-2.86-13.26-2.83-26.68,3.09-39.32,4.76-10.19,13.17-14.79,23.33-13.47,8,1,13.74,8,15.71,18.94C1019.83,1013.32,1020.3,1017.57,1020.76,1020.84Z" transform="translate(-40.98 -201.65)"/><path class="cls-6" d="M1240.89,1021.34c-.16,6.55-.33,13.11-2.85,19.32-6.12,15.09-24.1,17.85-34.52,5.29-9.93-12-10.63-41.69-1.28-54.31,7.52-10.14,22.43-9.92,30.91.62C1240,1000.76,1240.84,1011,1240.89,1021.34Z" transform="translate(-40.98 -201.65)"/><path class="cls-6" d="M1350.38,1037.84c-.39,4.48.1,9.56-1.44,14.64-2.07,6.86-4.76,13.13-12.32,14.92-8.38,2-15.81-.54-21.69-6.92-11-11.94-12.7-42.59-3.2-55.65,6.22-8.55,19.12-9,27.71-.61C1348.72,1013.27,1350.48,1025,1350.38,1037.84Z" transform="translate(-40.98 -201.65)"/><path class="cls-6" d="M1350.37,1168.52c-.38,5.08,0,10.16-1.45,15.26-2.12,7.3-5.37,13.49-13.25,15.2-8.2,1.77-15.39-1.28-20.65-7.54-9.74-11.6-10.15-25.54-8.83-39.72.13-1.41.66-2.78.93-4.18,1.62-8.61,5.12-15.92,14.47-18.13,8.16-1.93,17.79,3.24,22.8,11.93C1349.22,1149.72,1350.78,1158.92,1350.37,1168.52Z" transform="translate(-40.98 -201.65)"/><path class="cls-8" d="M1048.75,997.13c-3.52,1.4-6.09,2.49-8.7,3.44-1.69.61-3.63,2.17-4.86-.7-.8-1.86-1.87-4.19.26-5.4,6.37-3.63,11.91-8.82,19.32-10.56,4-.95,5.49.41,5.45,4.71-.19,19.1-.27,38.22,0,57.32.09,5.39-2.49,5.84-6.71,6.15-5.75.44-4.79-3.29-4.79-6.61C1048.74,1029.81,1048.75,1014.14,1048.75,997.13Z" transform="translate(-40.98 -201.65)"/><path class="cls-9" d="M939,1011.93c-3.64,1.78-6.09,3-8.6,4.18-1.6.73-3.37,2.81-4.75-.37-.81-1.86-1.92-3.84.31-5.31,6.34-4.18,11.53-10.11,19.16-12.36,3.32-1,5.29-1.19,5.26,3.35-.14,19.65-.18,39.3,0,59,.07,5.9-4,5.06-7.48,5.58-5,.75-3.86-3-3.87-5.52C938.91,1044.62,939,1028.79,939,1011.93Z" transform="translate(-40.98 -201.65)"/><path class="cls-10" d="M939,1142.84c-3.75,1.93-6.3,3.11-8.71,4.53-2,1.18-3.71,1.54-4.87-.91-.89-1.87-1.37-3.77.79-5.28,5.36-3.77,10.38-8.16,16.12-11.2,4.4-2.33,8.38-2.35,8.16,5.32-.53,18.25-.61,36.55,0,54.79.26,7.38-4.76,7.07-8.59,7.26-5.15.26-2.78-4.56-2.82-7C938.84,1174.94,939,1159.54,939,1142.84Z" transform="translate(-40.98 -201.65)"/><path class="cls-11" d="M1115.12,1147.23c0,8.56-.06,17.12,0,25.67,0,4.09.7,7.68-5.78,7.64-6.27,0-5.19-3.72-5.19-7.27,0-14-.19-28,.07-41.93.1-5.44-1.31-6.42-6.34-4.29-2.1.89-5.34,4.66-7.79-.37s2.1-5.68,4.63-7.25c4.09-2.54,8.27-5.16,12.77-6.73,4.21-1.48,8.19-1.59,7.75,5.45C1114.67,1127.81,1115.12,1137.54,1115.12,1147.23Z" transform="translate(-40.98 -201.65)"/><path class="cls-3" d="M1214.6,1127.51a95.84,95.84,0,0,0-9.68,2.26c-2.6.9-3.49.1-4.31-2.3s-1.55-4.35,1.71-5.27a8.93,8.93,0,0,0,1.54-.72c20.19-10.34,21.54-9.55,21.54,12.55,0,14.58,0,29.15-.06,43.73,0,2.44,1.35,6.39-3.85,5.37-3.3-.66-7.24.59-7.06-5.61C1214.92,1161,1214.6,1144.5,1214.6,1127.51Z" transform="translate(-40.98 -201.65)"/><path class="cls-3" d="M1159.55,993.67c-3.61,1.12-6.6,1.87-9.45,3s-3.86-.3-5-2.69-.44-3.71,1.65-4.75c.76-.38,1.56-.69,2.31-1.1,20.39-11.14,21.09-10.75,21.09,12,0,14.28-.09,28.56.06,42.84,0,3.87-.08,6.29-5.28,6.12-4.75-.17-5.52-1.94-5.47-6.09C1159.67,1026.75,1159.55,1010.54,1159.55,993.67Z" transform="translate(-40.98 -201.65)"/><path class="cls-12" d="M1280.47,1023.8c0,8.83.29,17.68-.19,26.48-.14,2.51,3.12,7.55-3.16,7.59-4.76,0-8.19-.7-7.83-7.49.73-13.92,0-27.91.32-41.86.11-5.12-.73-7.63-6.44-5.63-3.09,1.08-6.37,2.92-7.8-2.64s3.09-4.64,5.34-5.56c22.42-9.21,20.2-5.87,19.78,12.87C1280.37,1013,1280.47,1018.39,1280.47,1023.8Z" transform="translate(-40.98 -201.65)"/><path class="cls-7" d="M1269.51,1133c-3.43.57-6.24,1-9,1.54-2.59.55-4.1.2-5-2.82s.06-4.19,2.64-4.94c.27-.07.47-.33.73-.45,19.23-9.4,21.62-7.94,21.62,13.16q0,21.86,0,43.71c0,3,1,6.62-4.38,6-4-.48-6.81-1.1-6.7-6.45C1269.73,1166.23,1269.51,1149.69,1269.51,1133Z" transform="translate(-40.98 -201.65)"/><path class="cls-2" d="M986.49,1166.26c-1.19-11-1-19.88,2.52-28.45,1.68-4.13,4.53-7.34,9.18-7.87,3.36-.39,5.75,1.61,7.71,4.36,2.11,3,.94,5.23-.9,7.63C999.18,1149.51,993.42,1157.14,986.49,1166.26Z" transform="translate(-40.98 -201.65)"/><path class="cls-2" d="M1009.4,1146.11c1.23,12,.91,21.41-4,30.07-4,7.09-10.81,7.94-15.18,2.33-1.35-1.75-2.89-3.44-.89-6C995.71,1164.35,1001.88,1156,1009.4,1146.11Z" transform="translate(-40.98 -201.65)"/><path class="cls-2" d="M1151.61,1156.14c-.88-10.89-1.11-20,3-28.7,1.7-3.56,4.49-6,8.57-5.9s6.71,2.51,8.5,6.06c1.08,2.15,1.54,3.92-.38,6.05C1165,1140.67,1158.82,1147.88,1151.61,1156.14Z" transform="translate(-40.98 -201.65)"/><path class="cls-2" d="M1175,1139.31c.28,10.61,1.23,19.38-2.87,27.59-3.77,7.57-10.36,8.8-15.58,3.09-2.86-3.12-3.44-5.87-.11-9.4C1162.45,1154.22,1168,1147.4,1175,1139.31Z" transform="translate(-40.98 -201.65)"/><path class="cls-2" d="M1041.46,1159.92c-1-11.49-1.51-21.05,3.46-29.83,4.21-7.45,11.25-7.9,15.67-1.51,1.65,2.38,2.17,4.53.23,7C1054.72,1143.19,1048.65,1150.86,1041.46,1159.92Z" transform="translate(-40.98 -201.65)"/><path class="cls-2" d="M1064.62,1140.84c1.16,11.1.39,19.53-2.76,27.62-1.9,4.89-5.25,8.23-11,7.47-6.13-.8-8.58-6.52-4.81-11.43C1051.67,1157.1,1057.51,1149.85,1064.62,1140.84Z" transform="translate(-40.98 -201.65)"/><path class="cls-2" d="M1096.35,1025.79c-.34-11.45-1.42-20.91,3.43-29.56,4.27-7.63,11.78-8,16.16-1,1.71,2.73,1.84,4.9-.48,7.57C1109.33,1009.79,1103.53,1017.09,1096.35,1025.79Z" transform="translate(-40.98 -201.65)"/><path class="cls-2" d="M1119.75,1007.65c1,11.12.79,19.9-3.06,28.1-3.48,7.42-10.87,8.62-15.8,3-2.32-2.67-3.05-4.93-.32-8C1106.75,1023.65,1112.58,1016.31,1119.75,1007.65Z" transform="translate(-40.98 -201.65)"/><path class="cls-2" d="M1009.47,1015.07c1.38,11.32.33,20.16-3.12,28.59-2,4.8-5.68,7.87-11.43,6.78-5.45-1-7.66-6-4.41-10.45C996.3,1032.12,1002.32,1024.44,1009.47,1015.07Z" transform="translate(-40.98 -201.65)"/><path class="cls-2" d="M986.52,1035.1c-1.28-10.41-.84-18.79,1.84-26.95,1.27-3.85,3.6-7.16,7.46-8.78,3.5-1.47,6.66-.44,9.13,2.45s2.73,5.67.06,9C999,1018.23,993.42,1026,986.52,1035.1Z" transform="translate(-40.98 -201.65)"/><path class="cls-2" d="M1206.76,1027.44c-1.2-10.62-.81-19.13,2.54-27.41,1.61-4,4-6.75,8.74-6.66s6.77,3,9,6.61c2.8,4.55-1.25,6.14-3.14,8.38C1218.81,1014.41,1213.36,1020.15,1206.76,1027.44Z" transform="translate(-40.98 -201.65)"/><path class="cls-2" d="M1229.93,1011.81c.56,10.52,1.42,19.26-2.72,27.44-3.81,7.5-11.52,7.92-16.23,1.16-2.06-3-2.28-5.4.46-8.27C1217.34,1026,1222.94,1019.54,1229.93,1011.81Z" transform="translate(-40.98 -201.65)"/><path class="cls-2" d="M1316.6,1039.83c-1.26-9.66-.72-17.77,2.16-25.64,1.45-3.94,3.67-7.16,8.62-6.81s7,3.93,9.33,7.71c2.81,4.64-1.32,6.09-3.4,8.26C1328.22,1028.68,1322.83,1033.73,1316.6,1039.83Z" transform="translate(-40.98 -201.65)"/><path class="cls-2" d="M1339.78,1026.7c.22,10.28,1.07,18.29-2,25.91-1.41,3.49-3.3,6.56-7.9,6.57-5,0-7.67-3-10-6.83-2.54-4.27,1.08-6.16,3.29-8.5C1328.22,1038.55,1333.33,1033.36,1339.78,1026.7Z" transform="translate(-40.98 -201.65)"/><path class="cls-2" d="M1316.57,1170.53a52.53,52.53,0,0,1,2-24.83c1.35-4,3.8-7.52,8.24-7.43,4.93.1,7.72,3.7,10,8,2.49,4.68-1.41,6.12-3.5,8.26C1328.19,1159.78,1322.73,1164.69,1316.57,1170.53Z" transform="translate(-40.98 -201.65)"/><path class="cls-2" d="M1339.65,1158.82c.53,9.06,1.11,17-1.72,24.67-1.44,3.9-3.9,7.36-8.56,7.11-4.27-.24-7-3.27-9.24-6.81-2.91-4.66,1-6.77,3.41-9.25C1328.48,1169.48,1333.66,1164.64,1339.65,1158.82Z" transform="translate(-40.98 -201.65)"/></svg>