<svg width="1000" height="811" viewBox="0 0 1000 811" fill="none" xmlns="http://www.w3.org/2000/svg">
<path d="M284.916 721.51C232.402 762.154 199.441 785.645 186.034 791.983C165.922 801.305 144.507 805.966 121.788 805.966C86.406 805.966 57.1695 793.848 34.0782 769.611C11.3594 745.374 0 713.494 0 673.969C0 648.986 5.58659 627.36 16.7598 609.089C32.0298 583.734 58.473 559.87 96.0894 537.497C134.078 515.125 197.021 487.905 284.916 455.838V435.703C284.916 384.619 276.723 349.569 260.335 330.552C244.32 311.536 220.857 302.028 189.944 302.028C166.48 302.028 147.858 308.366 134.078 321.044C119.926 333.722 112.849 348.264 112.849 364.67L113.966 397.11C113.966 414.263 109.497 427.5 100.559 436.821C91.9926 446.143 80.6332 450.804 66.4805 450.804C52.7002 450.804 41.3408 445.957 32.4022 436.262C23.8361 426.567 19.5531 413.33 19.5531 396.551C19.5531 364.484 35.9404 335.027 68.7151 308.18C101.49 281.333 147.486 267.91 206.704 267.91C252.142 267.91 289.385 275.554 318.436 290.841C340.41 302.4 356.611 320.485 367.039 345.094C373.743 361.128 377.095 393.941 377.095 443.533V617.479C377.095 666.325 378.026 696.341 379.888 707.528C381.75 718.341 384.73 725.612 388.827 729.341C393.296 733.069 398.324 734.934 403.911 734.934C409.87 734.934 415.084 733.629 419.553 731.019C427.374 726.171 442.458 712.561 464.804 690.189V721.51C423.091 777.441 383.24 805.407 345.251 805.407C327.002 805.407 312.477 799.068 301.676 786.39C290.875 773.713 285.289 752.086 284.916 721.51ZM284.916 685.155V489.956C228.678 512.328 192.365 528.175 175.978 537.497C146.555 553.904 125.512 571.056 112.849 588.954C100.186 606.852 93.8548 626.428 93.8548 647.681C93.8548 674.528 101.862 696.901 117.877 714.799C133.892 732.324 152.328 741.086 173.184 741.086C201.49 741.086 238.734 722.443 284.916 685.155Z" fill="black"/>
<path d="M643.575 371.382C693.11 302.4 746.555 267.91 803.911 267.91C856.425 267.91 902.235 290.469 941.341 335.586C980.447 380.331 1000 441.669 1000 519.599C1000 610.581 969.833 683.85 909.497 739.408C857.728 787.136 800 811 736.313 811C706.518 811 676.164 805.593 645.251 794.78C614.711 783.967 583.426 767.747 551.397 746.12V215.334C551.397 157.166 549.907 121.37 546.927 107.947C544.32 94.5235 540.037 85.3881 534.078 80.5407C528.119 75.6933 520.67 73.2697 511.732 73.2697C501.304 73.2697 488.268 76.2527 472.626 82.2186L464.804 62.6428L618.436 0H643.575V371.382ZM643.575 407.178V713.68C662.57 732.324 682.123 746.493 702.235 756.188C722.719 765.509 743.575 770.17 764.805 770.17C798.697 770.17 830.168 751.527 859.218 714.239C888.641 676.952 903.352 622.699 903.352 551.48C903.352 485.854 888.641 435.516 859.218 400.466C830.168 365.043 797.021 347.332 759.777 347.332C740.037 347.332 720.298 352.366 700.559 362.433C685.661 369.891 666.667 384.806 643.575 407.178Z" fill="black"/>
</svg>
