<svg width="100" height="100" viewBox="0 0 100 100" fill="none" xmlns="http://www.w3.org/2000/svg">
<g clip-path="url(#clip0_405_2)">
<rect width="100" height="100" fill="white"/>
<path d="M42.9655 81.6213V51.928C34.4847 55.3312 29.0087 57.7418 26.5375 59.1599C22.1005 61.6556 18.9273 64.2647 17.0177 66.9873C15.1081 69.7099 14.1533 72.6878 14.1533 75.9209C14.1533 80.0048 15.3609 83.408 17.7759 86.1306C20.191 88.7965 22.9711 90.1295 26.1163 90.1295C30.3847 90.1295 36.0011 87.2934 42.9655 81.6213Z" fill="white"/>
<path fill-rule="evenodd" clip-rule="evenodd" d="M18.3656 99.9989C13.03 99.9989 8.62117 98.1555 5.13901 94.4686C1.713 90.7817 0 85.9321 0 79.9197C0 76.1194 0.84246 72.8296 2.52738 70.0503C4.8301 66.1933 8.81775 62.5631 14.4903 59.1599C20.219 55.7566 29.7108 51.616 42.9655 46.738V43.6751C42.9655 35.9043 41.7299 30.5726 39.2586 27.6798C36.8436 24.787 33.3053 23.3406 28.6436 23.3406C25.1053 23.3406 22.2971 24.3049 20.219 26.2334C18.0848 28.1619 17.0177 30.374 17.0177 32.8697L17.1862 37.8045C17.1862 40.4136 16.5122 42.4272 15.1643 43.8452C13.8725 45.2633 12.1595 45.9723 10.0253 45.9723C7.94721 45.9723 6.2342 45.2349 4.88627 43.7602C3.5945 42.2854 2.94861 40.2718 2.94861 37.7194C2.94861 32.8414 5.41983 28.3604 10.3623 24.2765C15.3047 20.1926 22.2409 18.1507 31.171 18.1507C38.023 18.1507 43.6394 19.3135 48.0202 21.639C51.3339 23.3974 53.777 26.1483 55.3496 29.8919C56.3606 32.3309 56.8661 37.3223 56.8661 44.8662V71.3265C56.8661 71.3265 55.2764 84.1699 50 90.1295C41.6682 99.5401 23.7012 99.9989 18.3656 99.9989ZM42.9655 51.928V81.6213C36.0011 87.2934 30.3847 90.1295 26.1163 90.1295C22.9711 90.1295 20.191 88.7965 17.7759 86.1306C15.3609 83.408 14.1533 80.0048 14.1533 75.9209C14.1533 72.6878 15.1081 69.7099 17.0177 66.9873C18.9273 64.2647 22.1005 61.6556 26.5375 59.1599C29.0087 57.7418 34.4847 55.3312 42.9655 51.928Z" fill="black"/>
<path d="M57.0345 81.6213V51.9279C65.5153 55.3312 70.9913 57.7418 73.4625 59.1599C77.8995 61.6556 81.0727 64.2647 82.9823 66.9873C84.8919 69.7099 85.8467 72.6878 85.8467 75.9209C85.8467 80.0048 84.6391 83.408 82.2241 86.1306C79.809 88.7965 77.0289 90.1294 73.8837 90.1294C69.6153 90.1294 63.9989 87.2934 57.0345 81.6213Z" fill="white"/>
<path fill-rule="evenodd" clip-rule="evenodd" d="M81.6344 99.9989C86.9699 99.9989 91.3788 98.1554 94.861 94.4686C98.287 90.7817 100 85.9321 100 79.9197C100 76.1194 99.1575 72.8296 97.4726 70.0503C95.1699 66.1932 91.1823 62.5631 85.5097 59.1599C79.781 55.7566 70.2892 51.616 57.0345 46.738V25.5244C57.0345 17.7536 58.2701 12.4219 60.7414 9.5291C63.1564 6.63634 66.6947 5.18996 71.3564 5.18996C74.8947 5.18996 77.7029 6.15421 79.781 8.08272C81.9152 10.0112 82.9823 12.2233 82.9823 14.7191L82.8138 19.6538C82.8138 22.2629 83.4878 24.2765 84.8357 25.6945C86.1275 27.1126 87.8405 27.8216 89.9747 27.8216C92.0528 27.8216 93.7658 27.0842 95.1137 25.6095C96.4055 24.1347 97.0514 22.1211 97.0514 19.5687C97.0514 14.6907 94.5802 10.2098 89.6377 6.12585C84.6953 2.04195 77.7591 0 68.829 0C61.977 0 56.3606 1.16278 51.9798 3.48833C48.6661 5.24668 46.223 7.99764 44.6504 11.7412C43.6394 14.1802 43.1339 19.1717 43.1339 26.7155V71.3265C43.1339 71.3265 45.1944 84.0461 50 90.1295C58.1376 100.431 76.2988 99.9989 81.6344 99.9989ZM57.0345 51.9279V81.6213C63.9989 87.2934 69.6153 90.1294 73.8837 90.1294C77.0289 90.1294 79.809 88.7965 82.2241 86.1306C84.6391 83.408 85.8467 80.0048 85.8467 75.9209C85.8467 72.6878 84.8919 69.7099 82.9823 66.9873C81.0727 64.2647 77.8995 61.6556 73.4625 59.1599C70.9913 57.7418 65.5153 55.3312 57.0345 51.9279Z" fill="black"/>
</g>
<defs>
<clipPath id="clip0_405_2">
<rect width="100" height="100" fill="white"/>
</clipPath>
</defs>
</svg>
