<svg width="1001" height="1001" viewBox="0 0 1001 1001" fill="none" xmlns="http://www.w3.org/2000/svg">
<path d="M419.286 27.4474C467.579 -8.93035 532.974 -8.93039 581.267 27.4473L943.468 300.28C991.762 336.658 1011.97 401.139 993.523 459.999L855.175 901.452C836.728 960.313 783.823 1000.16 724.129 1000.16H276.424C216.73 1000.16 163.825 960.313 145.378 901.452L7.02991 459.999C-11.4166 401.139 8.79137 336.658 57.0848 300.28L419.286 27.4474Z" fill="#008077"/>
<path d="M490.086 448.492C497.563 450.122 505.286 450.122 512.764 448.492L604.67 428.461L724.552 407.389C782.773 397.155 813.646 476.164 764.971 510.829L687.549 565.967C667.424 580.299 658.793 606.652 666.338 630.727L695.255 722.993C711.755 775.639 653.638 819.418 610.442 786.882L533.82 729.169C514.503 714.619 488.347 714.619 469.03 729.169L392.408 786.882C349.212 819.418 291.095 775.639 307.594 722.993L336.647 630.293C344.128 606.425 335.712 580.29 315.901 565.868L239.89 510.534C191.738 475.48 222.968 397.073 280.946 407.459L398.18 428.461L490.086 448.492Z" fill="white"/>
<path d="M601.322 298.583C601.322 354.469 557.625 399.773 503.721 399.773C449.818 399.773 406.12 354.469 406.12 298.583C406.12 242.697 449.818 197.392 503.721 197.392C557.625 197.392 601.322 242.697 601.322 298.583Z" fill="white"/>
</svg>
