<svg width="96" height="96" viewBox="0 0 96 96" fill="none" xmlns="http://www.w3.org/2000/svg">
<path d="M40.2249 2.6192C44.8611 -0.873063 51.1389 -0.873067 55.7751 2.61919L90.5464 28.8111C95.1826 32.3034 97.1225 38.4936 95.3517 44.1442L82.0702 86.5237C80.2994 92.1743 75.2205 96 69.4899 96H26.5102C20.7795 96 15.7006 92.1743 13.9298 86.5237L0.648317 44.1442C-1.12254 38.4936 0.817417 32.3034 5.45359 28.8112L40.2249 2.6192Z" fill="#008077"/>
<path d="M47.0217 43.0395C47.7395 43.196 48.4809 43.196 49.1988 43.0395L58.0218 41.1165L69.5304 39.0936C75.1197 38.1111 78.0835 45.6959 73.4107 49.0238L65.9782 54.3171C64.0462 55.693 63.2176 58.2228 63.9419 60.534L66.7179 69.3916C68.3019 74.4456 62.7227 78.6484 58.5759 75.5249L51.2202 69.9844C49.3657 68.5876 46.8547 68.5876 45.0003 69.9844L37.6446 75.5249C33.4978 78.6484 27.9185 74.4456 29.5025 69.3916L32.2916 60.4924C33.0097 58.201 32.2018 55.6921 30.3 54.3076L23.0029 48.9955C18.3802 45.6303 21.3784 38.1033 26.9443 39.1003L38.1987 41.1165L47.0217 43.0395Z" fill="white"/>
<path d="M57.7004 28.6482C57.7004 34.0133 53.5054 38.3625 48.3307 38.3625C43.156 38.3625 38.961 34.0133 38.961 28.6482C38.961 23.2832 43.156 18.9339 48.3307 18.9339C53.5054 18.9339 57.7004 23.2832 57.7004 28.6482Z" fill="white"/>
</svg>
