<svg width="32" height="32" viewBox="0 0 32 32" fill="none" xmlns="http://www.w3.org/2000/svg">
<path d="M13.4083 0.873066C14.9537 -0.291021 17.0463 -0.291022 18.5917 0.873064L30.1821 9.60372C31.7275 10.7678 32.3742 12.8312 31.7839 14.7147L27.3567 28.8412C26.7665 30.7247 25.0735 32 23.1633 32H8.83672C6.92651 32 5.23354 30.7248 4.64326 28.8412L0.216106 14.7147C-0.374181 12.8312 0.272472 10.7678 1.81786 9.60372L13.4083 0.873066Z" fill="#008077"/>
<path d="M15.6739 14.3465C15.9132 14.3987 16.1603 14.3987 16.3996 14.3465L19.3406 13.7055L23.1768 13.0312C25.0399 12.7037 26.0278 15.232 24.4702 16.3413L21.9927 18.1057C21.3487 18.5643 21.0725 19.4076 21.314 20.178L22.2393 23.1305C22.7673 24.8152 20.9076 26.2161 19.5253 25.175L17.0734 23.3281C16.4552 22.8625 15.6182 22.8625 15.0001 23.3281L12.5482 25.175C11.1659 26.2161 9.30618 24.8152 9.83417 23.1305L10.7639 20.1641C11.0032 19.4003 10.7339 18.564 10.1 18.1025L7.66763 16.3318C6.12675 15.2101 7.12613 12.7011 8.98143 13.0334L12.7329 13.7055L15.6739 14.3465Z" fill="white"/>
<path d="M19.2335 9.5494C19.2335 11.3378 17.8351 12.7875 16.1102 12.7875C14.3853 12.7875 12.987 11.3378 12.987 9.5494C12.987 7.76105 14.3853 6.31131 16.1102 6.31131C17.8351 6.31131 19.2335 7.76105 19.2335 9.5494Z" fill="white"/>
</svg>
